<?xml version="1.0" encoding="iso-8859-1"?>
<!-- Generator: Adobe Illustrator 19.0.0, SVG Export Plug-In . SVG Version: 6.00 Build 0)  -->
<svg height="16" width="16" fill="#fff" version="1.1" id="Capa_1" xmlns="http://www.w3.org/2000/svg" xmlns:xlink="http://www.w3.org/1999/xlink" x="0px" y="0px"
	 viewBox="0 0 437.812 437.812" style="enable-background:new 0 0 437.812 437.812;" xml:space="preserve">
<g>
	<g>
		<g>
			<circle cx="152.033" cy="390.792" r="47.02"/>
			<circle cx="350.563" cy="390.792" r="47.02"/>
			<path d="M114.939,82.024l-16.196-49.11C92.296,13.499,74.267,0.292,53.812,0H18.808C13.037,0,8.359,4.678,8.359,10.449
				s4.678,10.449,10.449,10.449h35.004c11.361,0.251,21.365,7.546,25.078,18.286l65.829,200.098l-4.702,12.016
				c-5.729,14.98-4.185,31.769,4.18,45.453c8.695,13.274,23.323,21.466,39.184,21.943h203.755c5.771,0,10.449-4.678,10.449-10.449
				c0-5.771-4.678-10.449-10.449-10.449H183.38c-8.797-0.304-16.849-5.017-21.42-12.539c-4.932-7.424-5.908-16.796-2.612-25.078
				l6.269-15.674c0.942-2.504,1.124-5.23,0.522-7.837l-3.135-7.837l212.637-21.943c15.482-1.393,28.327-12.554,31.869-27.69
				l21.943-92.473L114.939,82.024z"/>
		</g>
	</g>
</g>

</svg>
