<svg id="Capa_1" enable-background="new 0 0 20 20" height="20" viewBox="0 0 512 512" width="20" xmlns="http://www.w3.org/2000/svg">
    <g>
        <path fill="#fff" d="m361 497c0-8.291-6.709-15-15-15h-180c-8.291 0-15 6.709-15 15s6.709 15 15 15h180c8.291 0 15-6.709 15-15z"/>
        <path fill="#fff" d="m256 0c-90.981 0-165 74.019-165 165 0 124.775 148.096 276.307 154.395 282.605 2.93 2.93 6.768 4.395 10.605 4.395s7.676-1.465 10.605-4.395c6.299-6.298 154.395-157.83 154.395-282.605 0-90.981-74.019-165-165-165zm102.48 173.32c-4.521 6.793-13.786 8.809-20.801 4.16l-6.68-4.453v81.973c0 8.291-6.709 15-15 15h-119.999c-8.291 0-15-6.709-15-15v-81.973l-6.68 4.453c-6.929 4.556-16.23 2.71-20.801-4.16-4.6-6.899-2.739-16.201 4.16-20.801l90-60c5.039-3.369 11.602-3.369 16.641 0l90 60c6.9 4.6 8.76 13.902 4.16 20.801z"/>
        <path fill="#fff" d="m211 153.03v86.97h90v-86.97l-45-29.998z"/>
    </g>
</svg>
