<?xml version="1.0" encoding="iso-8859-1"?>
<!-- Generator: Adobe Illustrator 19.0.0, SVG Export Plug-In . SVG Version: 6.00 Build 0)  -->
<svg version="1.1" fill="black" height="12px" width="12px" id="Capa_1" xmlns="http://www.w3.org/2000/svg" xmlns:xlink="http://www.w3.org/1999/xlink" x="0px" y="0px"
	 viewBox="0 0 344.329 344.329" style="enable-background:new 0 0 344.329 344.329;" xml:space="preserve">
<g>
	<g>
		<path d="M277.965,90h-50.8c-2.9-28-18-54-40.1-70h90.9c5.5,0,10-4.5,10-10s-4.5-10-10-10h-211.6c-5.5,0-10,4.5-10,10s4.5,10,10,10
			h60.6c41.2,0,75.2,31,80.1,70h-140.7c-5.5,0-10,4.5-10,10s4.5,10,10,10h140.7c-5,40.5-39.4,70.9-80.1,71h-60.5
			c-5.6,0.1-10.1,4.7-10,10.3c0,2.7,1.2,5.3,3.1,7.2l151.3,143.1c4,3.8,10.3,3.6,14.1-0.4c3.8-4.1,3.6-10.4-0.4-14.3L91.465,201
			h35.4c52.2,0,95.3-40,100.3-91h50.8c5.5,0,10-4.5,10-10S283.465,90,277.965,90z"/>
	</g>
</g>

</svg>
